%TF.GenerationSoftware,KiCad,Pcbnew,(2017-10-17 revision 537804b)-master*%
%TF.CreationDate,2018-04-23T21:02:36+10:00*%
%TF.ProjectId,carvey,6361727665792E6B696361645F706362,rev?*%
%TF.SameCoordinates,PX792a110PY61e5090*%
%TF.FileFunction,Copper,L1,Top,Signal*%
%TF.FilePolarity,Positive*%
%FSLAX46Y46*%
G04 Gerber Fmt 4.6, Leading zero omitted, Abs format (unit mm)*
G04 Created by KiCad (PCBNEW (2017-10-17 revision 537804b)-master) date Monday, 23 April 2018 'PMt' 21:02:36*
%MOMM*%
%LPD*%
G01*
G04 APERTURE LIST*
%TA.AperFunction,SMDPad,CuDef*%
%ADD10R,3.500000X1.000000*%
%TD*%
%TA.AperFunction,SMDPad,CuDef*%
%ADD11R,1.550000X1.300000*%
%TD*%
%TA.AperFunction,Conductor*%
%ADD12C,1.000000*%
%TD*%
%TA.AperFunction,NonConductor*%
%ADD13C,0.254000*%
%TD*%
G04 APERTURE END LIST*
D10*
%TO.P,J1,1*%
%TO.N,Net-(J1-Pad1)*%
X23530000Y2725000D03*
%TO.P,J1,2*%
%TO.N,Net-(J1-Pad2)*%
X23550000Y5885000D03*
%TO.P,J1,3*%
X23530000Y9145000D03*
%TO.P,J1,4*%
%TO.N,Net-(J1-Pad1)*%
X23580000Y12385000D03*
%TD*%
D11*
%TO.P,SW1,1*%
%TO.N,Net-(J1-Pad1)*%
X12900000Y5050000D03*
X4950000Y5050000D03*
%TO.P,SW1,2*%
%TO.N,Net-(J1-Pad2)*%
X12900000Y9550000D03*
X4950000Y9550000D03*
%TD*%
D12*
%TO.N,Net-(J1-Pad1)*%
X4950000Y5050000D02*
X12900000Y5050000D01*
X12900000Y5050000D02*
X14675000Y5050000D01*
X14675000Y5050000D02*
X17000000Y2725000D01*
X17000000Y2725000D02*
X20780000Y2725000D01*
X20780000Y2725000D02*
X23530000Y2725000D01*
X20425000Y2725000D02*
X23530000Y2725000D01*
X27675000Y3650000D02*
X26750000Y2725000D01*
X26750000Y2725000D02*
X23530000Y2725000D01*
X27675000Y9540000D02*
X27675000Y3650000D01*
X23580000Y12385000D02*
X24830000Y12385000D01*
X24830000Y12385000D02*
X27675000Y9540000D01*
%TO.N,Net-(J1-Pad2)*%
X12900000Y9550000D02*
X23125000Y9550000D01*
X23125000Y9550000D02*
X23530000Y9145000D01*
X4950000Y9550000D02*
X12900000Y9550000D01*
X23550000Y5885000D02*
X23550000Y9125000D01*
X23550000Y9125000D02*
X23530000Y9145000D01*
%TD*%
D13*
G36*
X47540000Y695000D02*
X710000Y695000D01*
X710000Y12250000D01*
X2140000Y12250000D01*
X2268263Y11605178D01*
X2633525Y11058525D01*
X3180178Y10693263D01*
X3675101Y10594817D01*
X3576843Y10447765D01*
X3527560Y10200000D01*
X3527560Y8900000D01*
X3576843Y8652235D01*
X3717191Y8442191D01*
X3927235Y8301843D01*
X4175000Y8252560D01*
X5725000Y8252560D01*
X5972765Y8301843D01*
X6142115Y8415000D01*
X11707885Y8415000D01*
X11877235Y8301843D01*
X12125000Y8252560D01*
X13675000Y8252560D01*
X13922765Y8301843D01*
X14092115Y8415000D01*
X21178309Y8415000D01*
X21181843Y8397235D01*
X21322191Y8187191D01*
X21532235Y8046843D01*
X21780000Y7997560D01*
X22415000Y7997560D01*
X22415000Y7032440D01*
X21800000Y7032440D01*
X21552235Y6983157D01*
X21342191Y6842809D01*
X21201843Y6632765D01*
X21152560Y6385000D01*
X21152560Y5385000D01*
X21201843Y5137235D01*
X21342191Y4927191D01*
X21552235Y4786843D01*
X21800000Y4737560D01*
X25300000Y4737560D01*
X25547765Y4786843D01*
X25757809Y4927191D01*
X25898157Y5137235D01*
X25947440Y5385000D01*
X25947440Y6385000D01*
X25898157Y6632765D01*
X25757809Y6842809D01*
X25547765Y6983157D01*
X25300000Y7032440D01*
X24685000Y7032440D01*
X24685000Y7997560D01*
X25280000Y7997560D01*
X25527765Y8046843D01*
X25737809Y8187191D01*
X25878157Y8397235D01*
X25927440Y8645000D01*
X25927440Y9645000D01*
X25918147Y9691721D01*
X26540000Y9069868D01*
X26540000Y4120133D01*
X26279868Y3860000D01*
X25342541Y3860000D01*
X25280000Y3872440D01*
X21780000Y3872440D01*
X21717459Y3860000D01*
X17470133Y3860000D01*
X15477566Y5852566D01*
X15429025Y5885000D01*
X15109346Y6098603D01*
X14675000Y6185000D01*
X14092115Y6185000D01*
X13922765Y6298157D01*
X13675000Y6347440D01*
X12125000Y6347440D01*
X11877235Y6298157D01*
X11707885Y6185000D01*
X6142115Y6185000D01*
X5972765Y6298157D01*
X5725000Y6347440D01*
X4175000Y6347440D01*
X3927235Y6298157D01*
X3717191Y6157809D01*
X3576843Y5947765D01*
X3527560Y5700000D01*
X3527560Y4400000D01*
X3576843Y4152235D01*
X3580734Y4146412D01*
X3180178Y4066737D01*
X2633525Y3701475D01*
X2268263Y3154822D01*
X2140000Y2510000D01*
X2268263Y1865178D01*
X2633525Y1318525D01*
X3180178Y953263D01*
X3825000Y825000D01*
X4469822Y953263D01*
X5016475Y1318525D01*
X5381737Y1865178D01*
X5510000Y2510000D01*
X5381737Y3154822D01*
X5016475Y3701475D01*
X4940021Y3752560D01*
X5725000Y3752560D01*
X5972765Y3801843D01*
X6142115Y3915000D01*
X11707885Y3915000D01*
X11877235Y3801843D01*
X12125000Y3752560D01*
X12709979Y3752560D01*
X12633525Y3701475D01*
X12268263Y3154822D01*
X12140000Y2510000D01*
X12268263Y1865178D01*
X12633525Y1318525D01*
X13180178Y953263D01*
X13825000Y825000D01*
X14469822Y953263D01*
X15016475Y1318525D01*
X15381737Y1865178D01*
X15510000Y2510000D01*
X15485203Y2634665D01*
X16197434Y1922433D01*
X16565655Y1676396D01*
X17000000Y1590000D01*
X21717459Y1590000D01*
X21780000Y1577560D01*
X25280000Y1577560D01*
X25342541Y1590000D01*
X26750000Y1590000D01*
X27184346Y1676397D01*
X27552566Y1922434D01*
X28477567Y2847434D01*
X28723604Y3215655D01*
X28810000Y3650000D01*
X28810000Y9540000D01*
X28739831Y9892765D01*
X28723604Y9974345D01*
X28477566Y10342566D01*
X25977440Y12842692D01*
X25977440Y12885000D01*
X25928157Y13132765D01*
X25787809Y13342809D01*
X25577765Y13483157D01*
X25330000Y13532440D01*
X21830000Y13532440D01*
X21582235Y13483157D01*
X21372191Y13342809D01*
X21231843Y13132765D01*
X21182560Y12885000D01*
X21182560Y11885000D01*
X21231843Y11637235D01*
X21372191Y11427191D01*
X21582235Y11286843D01*
X21830000Y11237560D01*
X24372308Y11237560D01*
X25326721Y10283147D01*
X25280000Y10292440D01*
X23987692Y10292440D01*
X23927566Y10352566D01*
X23559346Y10598603D01*
X23125000Y10685000D01*
X14428281Y10685000D01*
X14469822Y10693263D01*
X15016475Y11058525D01*
X15381737Y11605178D01*
X15510000Y12250000D01*
X15381737Y12894822D01*
X15016475Y13441475D01*
X14469822Y13806737D01*
X13825000Y13935000D01*
X13180178Y13806737D01*
X12633525Y13441475D01*
X12268263Y12894822D01*
X12140000Y12250000D01*
X12268263Y11605178D01*
X12633525Y11058525D01*
X12949436Y10847440D01*
X12125000Y10847440D01*
X11877235Y10798157D01*
X11707885Y10685000D01*
X6142115Y10685000D01*
X5972765Y10798157D01*
X5725000Y10847440D01*
X4700564Y10847440D01*
X5016475Y11058525D01*
X5381737Y11605178D01*
X5510000Y12250000D01*
X5381737Y12894822D01*
X5016475Y13441475D01*
X4469822Y13806737D01*
X3825000Y13935000D01*
X3180178Y13806737D01*
X2633525Y13441475D01*
X2268263Y12894822D01*
X2140000Y12250000D01*
X710000Y12250000D01*
X710000Y14065000D01*
X47540000Y14065000D01*
X47540000Y695000D01*
X47540000Y695000D01*
G37*
X47540000Y695000D02*
X710000Y695000D01*
X710000Y12250000D01*
X2140000Y12250000D01*
X2268263Y11605178D01*
X2633525Y11058525D01*
X3180178Y10693263D01*
X3675101Y10594817D01*
X3576843Y10447765D01*
X3527560Y10200000D01*
X3527560Y8900000D01*
X3576843Y8652235D01*
X3717191Y8442191D01*
X3927235Y8301843D01*
X4175000Y8252560D01*
X5725000Y8252560D01*
X5972765Y8301843D01*
X6142115Y8415000D01*
X11707885Y8415000D01*
X11877235Y8301843D01*
X12125000Y8252560D01*
X13675000Y8252560D01*
X13922765Y8301843D01*
X14092115Y8415000D01*
X21178309Y8415000D01*
X21181843Y8397235D01*
X21322191Y8187191D01*
X21532235Y8046843D01*
X21780000Y7997560D01*
X22415000Y7997560D01*
X22415000Y7032440D01*
X21800000Y7032440D01*
X21552235Y6983157D01*
X21342191Y6842809D01*
X21201843Y6632765D01*
X21152560Y6385000D01*
X21152560Y5385000D01*
X21201843Y5137235D01*
X21342191Y4927191D01*
X21552235Y4786843D01*
X21800000Y4737560D01*
X25300000Y4737560D01*
X25547765Y4786843D01*
X25757809Y4927191D01*
X25898157Y5137235D01*
X25947440Y5385000D01*
X25947440Y6385000D01*
X25898157Y6632765D01*
X25757809Y6842809D01*
X25547765Y6983157D01*
X25300000Y7032440D01*
X24685000Y7032440D01*
X24685000Y7997560D01*
X25280000Y7997560D01*
X25527765Y8046843D01*
X25737809Y8187191D01*
X25878157Y8397235D01*
X25927440Y8645000D01*
X25927440Y9645000D01*
X25918147Y9691721D01*
X26540000Y9069868D01*
X26540000Y4120133D01*
X26279868Y3860000D01*
X25342541Y3860000D01*
X25280000Y3872440D01*
X21780000Y3872440D01*
X21717459Y3860000D01*
X17470133Y3860000D01*
X15477566Y5852566D01*
X15429025Y5885000D01*
X15109346Y6098603D01*
X14675000Y6185000D01*
X14092115Y6185000D01*
X13922765Y6298157D01*
X13675000Y6347440D01*
X12125000Y6347440D01*
X11877235Y6298157D01*
X11707885Y6185000D01*
X6142115Y6185000D01*
X5972765Y6298157D01*
X5725000Y6347440D01*
X4175000Y6347440D01*
X3927235Y6298157D01*
X3717191Y6157809D01*
X3576843Y5947765D01*
X3527560Y5700000D01*
X3527560Y4400000D01*
X3576843Y4152235D01*
X3580734Y4146412D01*
X3180178Y4066737D01*
X2633525Y3701475D01*
X2268263Y3154822D01*
X2140000Y2510000D01*
X2268263Y1865178D01*
X2633525Y1318525D01*
X3180178Y953263D01*
X3825000Y825000D01*
X4469822Y953263D01*
X5016475Y1318525D01*
X5381737Y1865178D01*
X5510000Y2510000D01*
X5381737Y3154822D01*
X5016475Y3701475D01*
X4940021Y3752560D01*
X5725000Y3752560D01*
X5972765Y3801843D01*
X6142115Y3915000D01*
X11707885Y3915000D01*
X11877235Y3801843D01*
X12125000Y3752560D01*
X12709979Y3752560D01*
X12633525Y3701475D01*
X12268263Y3154822D01*
X12140000Y2510000D01*
X12268263Y1865178D01*
X12633525Y1318525D01*
X13180178Y953263D01*
X13825000Y825000D01*
X14469822Y953263D01*
X15016475Y1318525D01*
X15381737Y1865178D01*
X15510000Y2510000D01*
X15485203Y2634665D01*
X16197434Y1922433D01*
X16565655Y1676396D01*
X17000000Y1590000D01*
X21717459Y1590000D01*
X21780000Y1577560D01*
X25280000Y1577560D01*
X25342541Y1590000D01*
X26750000Y1590000D01*
X27184346Y1676397D01*
X27552566Y1922434D01*
X28477567Y2847434D01*
X28723604Y3215655D01*
X28810000Y3650000D01*
X28810000Y9540000D01*
X28739831Y9892765D01*
X28723604Y9974345D01*
X28477566Y10342566D01*
X25977440Y12842692D01*
X25977440Y12885000D01*
X25928157Y13132765D01*
X25787809Y13342809D01*
X25577765Y13483157D01*
X25330000Y13532440D01*
X21830000Y13532440D01*
X21582235Y13483157D01*
X21372191Y13342809D01*
X21231843Y13132765D01*
X21182560Y12885000D01*
X21182560Y11885000D01*
X21231843Y11637235D01*
X21372191Y11427191D01*
X21582235Y11286843D01*
X21830000Y11237560D01*
X24372308Y11237560D01*
X25326721Y10283147D01*
X25280000Y10292440D01*
X23987692Y10292440D01*
X23927566Y10352566D01*
X23559346Y10598603D01*
X23125000Y10685000D01*
X14428281Y10685000D01*
X14469822Y10693263D01*
X15016475Y11058525D01*
X15381737Y11605178D01*
X15510000Y12250000D01*
X15381737Y12894822D01*
X15016475Y13441475D01*
X14469822Y13806737D01*
X13825000Y13935000D01*
X13180178Y13806737D01*
X12633525Y13441475D01*
X12268263Y12894822D01*
X12140000Y12250000D01*
X12268263Y11605178D01*
X12633525Y11058525D01*
X12949436Y10847440D01*
X12125000Y10847440D01*
X11877235Y10798157D01*
X11707885Y10685000D01*
X6142115Y10685000D01*
X5972765Y10798157D01*
X5725000Y10847440D01*
X4700564Y10847440D01*
X5016475Y11058525D01*
X5381737Y11605178D01*
X5510000Y12250000D01*
X5381737Y12894822D01*
X5016475Y13441475D01*
X4469822Y13806737D01*
X3825000Y13935000D01*
X3180178Y13806737D01*
X2633525Y13441475D01*
X2268263Y12894822D01*
X2140000Y12250000D01*
X710000Y12250000D01*
X710000Y14065000D01*
X47540000Y14065000D01*
X47540000Y695000D01*
G36*
X13945545Y2801022D02*
X14047739Y2732739D01*
X14116022Y2630545D01*
X14140000Y2510000D01*
X14116022Y2389455D01*
X14047739Y2287261D01*
X13945545Y2218978D01*
X13825000Y2195000D01*
X13704455Y2218978D01*
X13602261Y2287261D01*
X13533978Y2389455D01*
X13510000Y2510000D01*
X13533978Y2630545D01*
X13602261Y2732739D01*
X13704455Y2801022D01*
X13825000Y2825000D01*
X13945545Y2801022D01*
X13945545Y2801022D01*
G37*
X13945545Y2801022D02*
X14047739Y2732739D01*
X14116022Y2630545D01*
X14140000Y2510000D01*
X14116022Y2389455D01*
X14047739Y2287261D01*
X13945545Y2218978D01*
X13825000Y2195000D01*
X13704455Y2218978D01*
X13602261Y2287261D01*
X13533978Y2389455D01*
X13510000Y2510000D01*
X13533978Y2630545D01*
X13602261Y2732739D01*
X13704455Y2801022D01*
X13825000Y2825000D01*
X13945545Y2801022D01*
G36*
X3945545Y2801022D02*
X4047739Y2732739D01*
X4116022Y2630545D01*
X4140000Y2510000D01*
X4116022Y2389455D01*
X4047739Y2287261D01*
X3945545Y2218978D01*
X3825000Y2195000D01*
X3704455Y2218978D01*
X3602261Y2287261D01*
X3533978Y2389455D01*
X3510000Y2510000D01*
X3533978Y2630545D01*
X3602261Y2732739D01*
X3704455Y2801022D01*
X3825000Y2825000D01*
X3945545Y2801022D01*
X3945545Y2801022D01*
G37*
X3945545Y2801022D02*
X4047739Y2732739D01*
X4116022Y2630545D01*
X4140000Y2510000D01*
X4116022Y2389455D01*
X4047739Y2287261D01*
X3945545Y2218978D01*
X3825000Y2195000D01*
X3704455Y2218978D01*
X3602261Y2287261D01*
X3533978Y2389455D01*
X3510000Y2510000D01*
X3533978Y2630545D01*
X3602261Y2732739D01*
X3704455Y2801022D01*
X3825000Y2825000D01*
X3945545Y2801022D01*
G36*
X13945545Y12541022D02*
X14047739Y12472739D01*
X14116022Y12370545D01*
X14140000Y12250000D01*
X14116022Y12129455D01*
X14047739Y12027261D01*
X13945545Y11958978D01*
X13825000Y11935000D01*
X13704455Y11958978D01*
X13602261Y12027261D01*
X13533978Y12129455D01*
X13510000Y12250000D01*
X13533978Y12370545D01*
X13602261Y12472739D01*
X13704455Y12541022D01*
X13825000Y12565000D01*
X13945545Y12541022D01*
X13945545Y12541022D01*
G37*
X13945545Y12541022D02*
X14047739Y12472739D01*
X14116022Y12370545D01*
X14140000Y12250000D01*
X14116022Y12129455D01*
X14047739Y12027261D01*
X13945545Y11958978D01*
X13825000Y11935000D01*
X13704455Y11958978D01*
X13602261Y12027261D01*
X13533978Y12129455D01*
X13510000Y12250000D01*
X13533978Y12370545D01*
X13602261Y12472739D01*
X13704455Y12541022D01*
X13825000Y12565000D01*
X13945545Y12541022D01*
G36*
X3945545Y12541022D02*
X4047739Y12472739D01*
X4116022Y12370545D01*
X4140000Y12250000D01*
X4116022Y12129455D01*
X4047739Y12027261D01*
X3945545Y11958978D01*
X3825000Y11935000D01*
X3704455Y11958978D01*
X3602261Y12027261D01*
X3533978Y12129455D01*
X3510000Y12250000D01*
X3533978Y12370545D01*
X3602261Y12472739D01*
X3704455Y12541022D01*
X3825000Y12565000D01*
X3945545Y12541022D01*
X3945545Y12541022D01*
G37*
X3945545Y12541022D02*
X4047739Y12472739D01*
X4116022Y12370545D01*
X4140000Y12250000D01*
X4116022Y12129455D01*
X4047739Y12027261D01*
X3945545Y11958978D01*
X3825000Y11935000D01*
X3704455Y11958978D01*
X3602261Y12027261D01*
X3533978Y12129455D01*
X3510000Y12250000D01*
X3533978Y12370545D01*
X3602261Y12472739D01*
X3704455Y12541022D01*
X3825000Y12565000D01*
X3945545Y12541022D01*
M02*
