%TF.GenerationSoftware,KiCad,Pcbnew,(2017-10-17 revision 537804b)-master*%
%TF.CreationDate,2018-04-24T17:28:58+10:00*%
%TF.ProjectId,carvey,6361727665792E6B696361645F706362,rev?*%
%TF.SameCoordinates,PX792a110PY61e5090*%
%TF.FileFunction,Copper,L1,Top,Signal*%
%TF.FilePolarity,Positive*%
%FSLAX46Y46*%
G04 Gerber Fmt 4.6, Leading zero omitted, Abs format (unit mm)*
G04 Created by KiCad (PCBNEW (2017-10-17 revision 537804b)-master) date Tuesday, 24 April 2018 'PMt' 17:28:58*
%MOMM*%
%LPD*%
G01*
G04 APERTURE LIST*
%TA.AperFunction,SMDPad,CuDef*%
%ADD10R,3.500000X1.000000*%
%TD*%
%TA.AperFunction,SMDPad,CuDef*%
%ADD11R,1.550000X1.300000*%
%TD*%
%TA.AperFunction,Conductor*%
%ADD12C,1.000000*%
%TD*%
%TA.AperFunction,NonConductor*%
%ADD13C,0.254000*%
%TD*%
G04 APERTURE END LIST*
D10*
%TO.P,J1,1*%
%TO.N,Net-(J1-Pad1)*%
X23530000Y2725000D03*
%TO.P,J1,2*%
%TO.N,Net-(J1-Pad2)*%
X23550000Y5885000D03*
%TO.P,J1,3*%
X23530000Y9145000D03*
%TO.P,J1,4*%
%TO.N,Net-(J1-Pad1)*%
X23580000Y12385000D03*
%TD*%
D11*
%TO.P,SW1,1*%
%TO.N,Net-(J1-Pad1)*%
X12900000Y5050000D03*
X4950000Y5050000D03*
%TO.P,SW1,2*%
%TO.N,Net-(J1-Pad2)*%
X12900000Y9550000D03*
X4950000Y9550000D03*
%TD*%
D12*
%TO.N,Net-(J1-Pad1)*%
X4950000Y5050000D02*
X12900000Y5050000D01*
X12900000Y5050000D02*
X14675000Y5050000D01*
X14675000Y5050000D02*
X17000000Y2725000D01*
X17000000Y2725000D02*
X20780000Y2725000D01*
X20780000Y2725000D02*
X23530000Y2725000D01*
X20425000Y2725000D02*
X23530000Y2725000D01*
X27675000Y3650000D02*
X26750000Y2725000D01*
X26750000Y2725000D02*
X23530000Y2725000D01*
X27675000Y9540000D02*
X27675000Y3650000D01*
X23580000Y12385000D02*
X24830000Y12385000D01*
X24830000Y12385000D02*
X27675000Y9540000D01*
%TO.N,Net-(J1-Pad2)*%
X12900000Y9550000D02*
X23125000Y9550000D01*
X23125000Y9550000D02*
X23530000Y9145000D01*
X4950000Y9550000D02*
X12900000Y9550000D01*
X23550000Y5885000D02*
X23550000Y9125000D01*
X23550000Y9125000D02*
X23530000Y9145000D01*
%TD*%
D13*
G36*
X47540000Y695000D02*
X710000Y695000D01*
X710000Y12250000D01*
X2140000Y12250000D01*
X2268263Y11605178D01*
X2633525Y11058525D01*
X3180178Y10693263D01*
X3526419Y10624391D01*
X3548352Y10615284D01*
X3572310Y10615263D01*
X3589705Y10611803D01*
X3610461Y10604092D01*
X3625646Y10604654D01*
X3675101Y10594817D01*
X3576843Y10447765D01*
X3527560Y10200000D01*
X3527560Y8900000D01*
X3576843Y8652235D01*
X3717191Y8442191D01*
X3927235Y8301843D01*
X4175000Y8252560D01*
X5725000Y8252560D01*
X5972765Y8301843D01*
X6142115Y8415000D01*
X11707885Y8415000D01*
X11877235Y8301843D01*
X12125000Y8252560D01*
X13675000Y8252560D01*
X13922765Y8301843D01*
X14092115Y8415000D01*
X21178309Y8415000D01*
X21181843Y8397235D01*
X21322191Y8187191D01*
X21532235Y8046843D01*
X21780000Y7997560D01*
X22415000Y7997560D01*
X22415000Y7032440D01*
X21800000Y7032440D01*
X21552235Y6983157D01*
X21342191Y6842809D01*
X21201843Y6632765D01*
X21152560Y6385000D01*
X21152560Y5385000D01*
X21201843Y5137235D01*
X21342191Y4927191D01*
X21552235Y4786843D01*
X21800000Y4737560D01*
X25300000Y4737560D01*
X25547765Y4786843D01*
X25757809Y4927191D01*
X25898157Y5137235D01*
X25947440Y5385000D01*
X25947440Y6385000D01*
X25898157Y6632765D01*
X25757809Y6842809D01*
X25547765Y6983157D01*
X25300000Y7032440D01*
X24685000Y7032440D01*
X24685000Y7997560D01*
X25280000Y7997560D01*
X25527765Y8046843D01*
X25737809Y8187191D01*
X25878157Y8397235D01*
X25927440Y8645000D01*
X25927440Y9645000D01*
X25918147Y9691721D01*
X26540000Y9069868D01*
X26540000Y4120133D01*
X26279868Y3860000D01*
X25342541Y3860000D01*
X25280000Y3872440D01*
X21780000Y3872440D01*
X21717459Y3860000D01*
X17470133Y3860000D01*
X15477566Y5852566D01*
X15429025Y5885000D01*
X15109346Y6098603D01*
X14675000Y6185000D01*
X14092115Y6185000D01*
X13922765Y6298157D01*
X13675000Y6347440D01*
X12125000Y6347440D01*
X11877235Y6298157D01*
X11707885Y6185000D01*
X6142115Y6185000D01*
X5972765Y6298157D01*
X5725000Y6347440D01*
X4175000Y6347440D01*
X3927235Y6298157D01*
X3717191Y6157809D01*
X3576843Y5947765D01*
X3527560Y5700000D01*
X3527560Y4400000D01*
X3576843Y4152235D01*
X3580734Y4146412D01*
X3180178Y4066737D01*
X2633525Y3701475D01*
X2268263Y3154822D01*
X2140000Y2510000D01*
X2214723Y2134341D01*
X2214716Y2126205D01*
X2217850Y2118619D01*
X2228038Y2067402D01*
X2228144Y2064540D01*
X2229036Y2062387D01*
X2268263Y1865178D01*
X2379973Y1697993D01*
X2430613Y1575736D01*
X2444249Y1570694D01*
X2463106Y1525057D01*
X2561151Y1426841D01*
X2633525Y1318525D01*
X2740893Y1246784D01*
X2922637Y1064722D01*
X2970468Y1044861D01*
X2975736Y1030613D01*
X3175469Y956410D01*
X3180178Y953263D01*
X3188272Y951653D01*
X3251581Y928133D01*
X3523352Y815284D01*
X3555411Y815256D01*
X3585461Y804092D01*
X3879517Y814973D01*
X4173795Y814716D01*
X4203424Y826959D01*
X4235460Y828144D01*
X4724264Y1030613D01*
X4729306Y1044249D01*
X4774943Y1063106D01*
X5235278Y1522637D01*
X5255139Y1570468D01*
X5269387Y1575736D01*
X5370884Y1848936D01*
X5381737Y1865178D01*
X5385621Y1884704D01*
X5484716Y2123352D01*
X5484744Y2155411D01*
X5495908Y2185461D01*
X5487993Y2399363D01*
X5510000Y2510000D01*
X5485163Y2634866D01*
X5485284Y2773795D01*
X5473041Y2803424D01*
X5471856Y2835460D01*
X5420692Y2958980D01*
X5381737Y3154822D01*
X5270802Y3320848D01*
X5269387Y3324264D01*
X5268235Y3324690D01*
X5240519Y3366169D01*
X5236894Y3374943D01*
X5230128Y3381721D01*
X5016475Y3701475D01*
X4940021Y3752560D01*
X5725000Y3752560D01*
X5972765Y3801843D01*
X6142115Y3915000D01*
X11707885Y3915000D01*
X11877235Y3801843D01*
X12125000Y3752560D01*
X12709979Y3752560D01*
X12633525Y3701475D01*
X12421444Y3384073D01*
X12414722Y3377363D01*
X12411048Y3368514D01*
X12381765Y3324690D01*
X12380613Y3324264D01*
X12379527Y3321340D01*
X12268263Y3154822D01*
X12218561Y2904954D01*
X12165284Y2776648D01*
X12165256Y2744589D01*
X12154092Y2714539D01*
X12158263Y2601815D01*
X12140000Y2510000D01*
X12164942Y2384610D01*
X12164716Y2126205D01*
X12176959Y2096576D01*
X12178144Y2064540D01*
X12380613Y1575736D01*
X12394249Y1570694D01*
X12413106Y1525057D01*
X12872637Y1064722D01*
X12920468Y1044861D01*
X12925736Y1030613D01*
X13201581Y928133D01*
X13473352Y815284D01*
X13505411Y815256D01*
X13535461Y804092D01*
X13829517Y814973D01*
X14123795Y814716D01*
X14153424Y826959D01*
X14185460Y828144D01*
X14674264Y1030613D01*
X14679306Y1044249D01*
X14724943Y1063106D01*
X14908609Y1246451D01*
X15016475Y1318525D01*
X15087918Y1425447D01*
X15185278Y1522637D01*
X15205139Y1570468D01*
X15219387Y1575736D01*
X15258270Y1680396D01*
X15381737Y1865178D01*
X15431597Y2115840D01*
X15434716Y2123352D01*
X15434723Y2131558D01*
X15444912Y2182780D01*
X15445908Y2185461D01*
X15445835Y2187423D01*
X15510000Y2510000D01*
X15485203Y2634665D01*
X16197434Y1922433D01*
X16565655Y1676396D01*
X17000000Y1590000D01*
X21717459Y1590000D01*
X21780000Y1577560D01*
X25280000Y1577560D01*
X25342541Y1590000D01*
X26750000Y1590000D01*
X27184346Y1676397D01*
X27552566Y1922434D01*
X28477567Y2847434D01*
X28723604Y3215655D01*
X28810000Y3650000D01*
X28810000Y9540000D01*
X28739831Y9892765D01*
X28723604Y9974345D01*
X28477566Y10342566D01*
X25977440Y12842692D01*
X25977440Y12885000D01*
X25928157Y13132765D01*
X25787809Y13342809D01*
X25577765Y13483157D01*
X25330000Y13532440D01*
X21830000Y13532440D01*
X21582235Y13483157D01*
X21372191Y13342809D01*
X21231843Y13132765D01*
X21182560Y12885000D01*
X21182560Y11885000D01*
X21231843Y11637235D01*
X21372191Y11427191D01*
X21582235Y11286843D01*
X21830000Y11237560D01*
X24372308Y11237560D01*
X25326721Y10283147D01*
X25280000Y10292440D01*
X23987692Y10292440D01*
X23927566Y10352566D01*
X23559346Y10598603D01*
X23125000Y10685000D01*
X14443434Y10685000D01*
X14457433Y10690799D01*
X14469822Y10693263D01*
X14480325Y10700281D01*
X14674264Y10780613D01*
X14679306Y10794249D01*
X14724943Y10813106D01*
X14878313Y10966208D01*
X15016475Y11058525D01*
X15107984Y11195478D01*
X15185278Y11272637D01*
X15205139Y11320468D01*
X15219387Y11325736D01*
X15249902Y11407873D01*
X15381737Y11605178D01*
X15510000Y12250000D01*
X15381737Y12894822D01*
X15016475Y13441475D01*
X14469822Y13806737D01*
X13825000Y13935000D01*
X13180178Y13806737D01*
X12633525Y13441475D01*
X12441510Y13154104D01*
X12414722Y13127363D01*
X12400079Y13092098D01*
X12390639Y13077971D01*
X12380613Y13074264D01*
X12371159Y13048817D01*
X12268263Y12894822D01*
X12222379Y12664149D01*
X12165284Y12526648D01*
X12165256Y12494589D01*
X12154092Y12464539D01*
X12158575Y12343384D01*
X12140000Y12250000D01*
X12164933Y12124653D01*
X12164716Y11876205D01*
X12176959Y11846576D01*
X12178144Y11814540D01*
X12380613Y11325736D01*
X12394249Y11320694D01*
X12413106Y11275057D01*
X12839976Y10847440D01*
X12125000Y10847440D01*
X11877235Y10798157D01*
X11707885Y10685000D01*
X6142115Y10685000D01*
X5972765Y10798157D01*
X5725000Y10847440D01*
X4762028Y10847440D01*
X4799943Y10863106D01*
X4953656Y11016551D01*
X5016475Y11058525D01*
X5058082Y11120794D01*
X5260278Y11322637D01*
X5280139Y11370468D01*
X5294387Y11375736D01*
X5376986Y11598068D01*
X5381737Y11605178D01*
X5384168Y11617398D01*
X5396867Y11651581D01*
X5509716Y11923352D01*
X5509744Y11955411D01*
X5520908Y11985461D01*
X5510027Y12279517D01*
X5510284Y12573795D01*
X5498041Y12603424D01*
X5496856Y12635460D01*
X5294387Y13124264D01*
X5280751Y13129306D01*
X5261894Y13174943D01*
X5058272Y13378921D01*
X5016475Y13441475D01*
X4954468Y13482907D01*
X4802363Y13635278D01*
X4754532Y13655139D01*
X4749264Y13669387D01*
X4582857Y13731209D01*
X4469822Y13806737D01*
X4315533Y13837427D01*
X4201648Y13884716D01*
X4169589Y13884744D01*
X4139539Y13895908D01*
X4040039Y13892226D01*
X3825000Y13935000D01*
X3574956Y13885263D01*
X3551205Y13885284D01*
X3529060Y13876134D01*
X3511670Y13872675D01*
X3489540Y13871856D01*
X3472898Y13864963D01*
X3180178Y13806737D01*
X2633525Y13441475D01*
X2268263Y12894822D01*
X2140000Y12250000D01*
X710000Y12250000D01*
X710000Y14065000D01*
X47540000Y14065000D01*
X47540000Y695000D01*
X47540000Y695000D01*
G37*
X47540000Y695000D02*
X710000Y695000D01*
X710000Y12250000D01*
X2140000Y12250000D01*
X2268263Y11605178D01*
X2633525Y11058525D01*
X3180178Y10693263D01*
X3526419Y10624391D01*
X3548352Y10615284D01*
X3572310Y10615263D01*
X3589705Y10611803D01*
X3610461Y10604092D01*
X3625646Y10604654D01*
X3675101Y10594817D01*
X3576843Y10447765D01*
X3527560Y10200000D01*
X3527560Y8900000D01*
X3576843Y8652235D01*
X3717191Y8442191D01*
X3927235Y8301843D01*
X4175000Y8252560D01*
X5725000Y8252560D01*
X5972765Y8301843D01*
X6142115Y8415000D01*
X11707885Y8415000D01*
X11877235Y8301843D01*
X12125000Y8252560D01*
X13675000Y8252560D01*
X13922765Y8301843D01*
X14092115Y8415000D01*
X21178309Y8415000D01*
X21181843Y8397235D01*
X21322191Y8187191D01*
X21532235Y8046843D01*
X21780000Y7997560D01*
X22415000Y7997560D01*
X22415000Y7032440D01*
X21800000Y7032440D01*
X21552235Y6983157D01*
X21342191Y6842809D01*
X21201843Y6632765D01*
X21152560Y6385000D01*
X21152560Y5385000D01*
X21201843Y5137235D01*
X21342191Y4927191D01*
X21552235Y4786843D01*
X21800000Y4737560D01*
X25300000Y4737560D01*
X25547765Y4786843D01*
X25757809Y4927191D01*
X25898157Y5137235D01*
X25947440Y5385000D01*
X25947440Y6385000D01*
X25898157Y6632765D01*
X25757809Y6842809D01*
X25547765Y6983157D01*
X25300000Y7032440D01*
X24685000Y7032440D01*
X24685000Y7997560D01*
X25280000Y7997560D01*
X25527765Y8046843D01*
X25737809Y8187191D01*
X25878157Y8397235D01*
X25927440Y8645000D01*
X25927440Y9645000D01*
X25918147Y9691721D01*
X26540000Y9069868D01*
X26540000Y4120133D01*
X26279868Y3860000D01*
X25342541Y3860000D01*
X25280000Y3872440D01*
X21780000Y3872440D01*
X21717459Y3860000D01*
X17470133Y3860000D01*
X15477566Y5852566D01*
X15429025Y5885000D01*
X15109346Y6098603D01*
X14675000Y6185000D01*
X14092115Y6185000D01*
X13922765Y6298157D01*
X13675000Y6347440D01*
X12125000Y6347440D01*
X11877235Y6298157D01*
X11707885Y6185000D01*
X6142115Y6185000D01*
X5972765Y6298157D01*
X5725000Y6347440D01*
X4175000Y6347440D01*
X3927235Y6298157D01*
X3717191Y6157809D01*
X3576843Y5947765D01*
X3527560Y5700000D01*
X3527560Y4400000D01*
X3576843Y4152235D01*
X3580734Y4146412D01*
X3180178Y4066737D01*
X2633525Y3701475D01*
X2268263Y3154822D01*
X2140000Y2510000D01*
X2214723Y2134341D01*
X2214716Y2126205D01*
X2217850Y2118619D01*
X2228038Y2067402D01*
X2228144Y2064540D01*
X2229036Y2062387D01*
X2268263Y1865178D01*
X2379973Y1697993D01*
X2430613Y1575736D01*
X2444249Y1570694D01*
X2463106Y1525057D01*
X2561151Y1426841D01*
X2633525Y1318525D01*
X2740893Y1246784D01*
X2922637Y1064722D01*
X2970468Y1044861D01*
X2975736Y1030613D01*
X3175469Y956410D01*
X3180178Y953263D01*
X3188272Y951653D01*
X3251581Y928133D01*
X3523352Y815284D01*
X3555411Y815256D01*
X3585461Y804092D01*
X3879517Y814973D01*
X4173795Y814716D01*
X4203424Y826959D01*
X4235460Y828144D01*
X4724264Y1030613D01*
X4729306Y1044249D01*
X4774943Y1063106D01*
X5235278Y1522637D01*
X5255139Y1570468D01*
X5269387Y1575736D01*
X5370884Y1848936D01*
X5381737Y1865178D01*
X5385621Y1884704D01*
X5484716Y2123352D01*
X5484744Y2155411D01*
X5495908Y2185461D01*
X5487993Y2399363D01*
X5510000Y2510000D01*
X5485163Y2634866D01*
X5485284Y2773795D01*
X5473041Y2803424D01*
X5471856Y2835460D01*
X5420692Y2958980D01*
X5381737Y3154822D01*
X5270802Y3320848D01*
X5269387Y3324264D01*
X5268235Y3324690D01*
X5240519Y3366169D01*
X5236894Y3374943D01*
X5230128Y3381721D01*
X5016475Y3701475D01*
X4940021Y3752560D01*
X5725000Y3752560D01*
X5972765Y3801843D01*
X6142115Y3915000D01*
X11707885Y3915000D01*
X11877235Y3801843D01*
X12125000Y3752560D01*
X12709979Y3752560D01*
X12633525Y3701475D01*
X12421444Y3384073D01*
X12414722Y3377363D01*
X12411048Y3368514D01*
X12381765Y3324690D01*
X12380613Y3324264D01*
X12379527Y3321340D01*
X12268263Y3154822D01*
X12218561Y2904954D01*
X12165284Y2776648D01*
X12165256Y2744589D01*
X12154092Y2714539D01*
X12158263Y2601815D01*
X12140000Y2510000D01*
X12164942Y2384610D01*
X12164716Y2126205D01*
X12176959Y2096576D01*
X12178144Y2064540D01*
X12380613Y1575736D01*
X12394249Y1570694D01*
X12413106Y1525057D01*
X12872637Y1064722D01*
X12920468Y1044861D01*
X12925736Y1030613D01*
X13201581Y928133D01*
X13473352Y815284D01*
X13505411Y815256D01*
X13535461Y804092D01*
X13829517Y814973D01*
X14123795Y814716D01*
X14153424Y826959D01*
X14185460Y828144D01*
X14674264Y1030613D01*
X14679306Y1044249D01*
X14724943Y1063106D01*
X14908609Y1246451D01*
X15016475Y1318525D01*
X15087918Y1425447D01*
X15185278Y1522637D01*
X15205139Y1570468D01*
X15219387Y1575736D01*
X15258270Y1680396D01*
X15381737Y1865178D01*
X15431597Y2115840D01*
X15434716Y2123352D01*
X15434723Y2131558D01*
X15444912Y2182780D01*
X15445908Y2185461D01*
X15445835Y2187423D01*
X15510000Y2510000D01*
X15485203Y2634665D01*
X16197434Y1922433D01*
X16565655Y1676396D01*
X17000000Y1590000D01*
X21717459Y1590000D01*
X21780000Y1577560D01*
X25280000Y1577560D01*
X25342541Y1590000D01*
X26750000Y1590000D01*
X27184346Y1676397D01*
X27552566Y1922434D01*
X28477567Y2847434D01*
X28723604Y3215655D01*
X28810000Y3650000D01*
X28810000Y9540000D01*
X28739831Y9892765D01*
X28723604Y9974345D01*
X28477566Y10342566D01*
X25977440Y12842692D01*
X25977440Y12885000D01*
X25928157Y13132765D01*
X25787809Y13342809D01*
X25577765Y13483157D01*
X25330000Y13532440D01*
X21830000Y13532440D01*
X21582235Y13483157D01*
X21372191Y13342809D01*
X21231843Y13132765D01*
X21182560Y12885000D01*
X21182560Y11885000D01*
X21231843Y11637235D01*
X21372191Y11427191D01*
X21582235Y11286843D01*
X21830000Y11237560D01*
X24372308Y11237560D01*
X25326721Y10283147D01*
X25280000Y10292440D01*
X23987692Y10292440D01*
X23927566Y10352566D01*
X23559346Y10598603D01*
X23125000Y10685000D01*
X14443434Y10685000D01*
X14457433Y10690799D01*
X14469822Y10693263D01*
X14480325Y10700281D01*
X14674264Y10780613D01*
X14679306Y10794249D01*
X14724943Y10813106D01*
X14878313Y10966208D01*
X15016475Y11058525D01*
X15107984Y11195478D01*
X15185278Y11272637D01*
X15205139Y11320468D01*
X15219387Y11325736D01*
X15249902Y11407873D01*
X15381737Y11605178D01*
X15510000Y12250000D01*
X15381737Y12894822D01*
X15016475Y13441475D01*
X14469822Y13806737D01*
X13825000Y13935000D01*
X13180178Y13806737D01*
X12633525Y13441475D01*
X12441510Y13154104D01*
X12414722Y13127363D01*
X12400079Y13092098D01*
X12390639Y13077971D01*
X12380613Y13074264D01*
X12371159Y13048817D01*
X12268263Y12894822D01*
X12222379Y12664149D01*
X12165284Y12526648D01*
X12165256Y12494589D01*
X12154092Y12464539D01*
X12158575Y12343384D01*
X12140000Y12250000D01*
X12164933Y12124653D01*
X12164716Y11876205D01*
X12176959Y11846576D01*
X12178144Y11814540D01*
X12380613Y11325736D01*
X12394249Y11320694D01*
X12413106Y11275057D01*
X12839976Y10847440D01*
X12125000Y10847440D01*
X11877235Y10798157D01*
X11707885Y10685000D01*
X6142115Y10685000D01*
X5972765Y10798157D01*
X5725000Y10847440D01*
X4762028Y10847440D01*
X4799943Y10863106D01*
X4953656Y11016551D01*
X5016475Y11058525D01*
X5058082Y11120794D01*
X5260278Y11322637D01*
X5280139Y11370468D01*
X5294387Y11375736D01*
X5376986Y11598068D01*
X5381737Y11605178D01*
X5384168Y11617398D01*
X5396867Y11651581D01*
X5509716Y11923352D01*
X5509744Y11955411D01*
X5520908Y11985461D01*
X5510027Y12279517D01*
X5510284Y12573795D01*
X5498041Y12603424D01*
X5496856Y12635460D01*
X5294387Y13124264D01*
X5280751Y13129306D01*
X5261894Y13174943D01*
X5058272Y13378921D01*
X5016475Y13441475D01*
X4954468Y13482907D01*
X4802363Y13635278D01*
X4754532Y13655139D01*
X4749264Y13669387D01*
X4582857Y13731209D01*
X4469822Y13806737D01*
X4315533Y13837427D01*
X4201648Y13884716D01*
X4169589Y13884744D01*
X4139539Y13895908D01*
X4040039Y13892226D01*
X3825000Y13935000D01*
X3574956Y13885263D01*
X3551205Y13885284D01*
X3529060Y13876134D01*
X3511670Y13872675D01*
X3489540Y13871856D01*
X3472898Y13864963D01*
X3180178Y13806737D01*
X2633525Y13441475D01*
X2268263Y12894822D01*
X2140000Y12250000D01*
X710000Y12250000D01*
X710000Y14065000D01*
X47540000Y14065000D01*
X47540000Y695000D01*
M02*
